<svg width="216" height="223" viewBox="0 0 216 223" fill="none" xmlns="http://www.w3.org/2000/svg">
<path fill-rule="evenodd" clip-rule="evenodd" d="M203.142 72.3835C202.088 80.7537 200.614 89.0589 199.505 97.4168C199.276 99.1353 199.863 104.733 198.885 105.803C197.512 107.304 192.075 104.46 190.793 103.834C184.215 100.62 178.019 96.8446 171.77 93.0484C171.044 92.6076 166.382 90.3666 166.379 89.5997C166.367 86.6848 172.029 84.722 173.873 83.6842C181.925 79.1545 192.836 72.7226 201.872 70.3682" fill="#FFF500"/>
<path d="M203.142 72.3835C202.088 80.7537 200.614 89.0589 199.505 97.4168C199.276 99.1353 199.863 104.733 198.885 105.803C197.512 107.304 192.075 104.46 190.793 103.834C184.215 100.62 178.019 96.8446 171.77 93.0484C171.044 92.6076 166.382 90.3666 166.379 89.5997C166.367 86.6848 172.029 84.722 173.873 83.6842C181.925 79.1545 192.836 72.7226 201.872 70.3682" stroke="#FFF500" stroke-width="5" stroke-miterlimit="1.5" stroke-linecap="round" stroke-linejoin="round"/>
<path d="M184.982 96.5681C175.394 121.276 152.171 151.993 125.933 160.941C114.03 165.001 81.7274 163.307 83.7033 143.748C85.869 122.318 117.494 136.44 110.719 154.929C104.728 171.277 86.6289 176.696 70.6353 175.706C42.3701 173.957 20.0018 160.018 4.65442 136.467" stroke="#FFF500" stroke-width="5" stroke-miterlimit="1.5" stroke-linecap="round" stroke-linejoin="round"/>
</svg>
