<svg width="291" height="298" viewBox="0 0 291 298" fill="none" xmlns="http://www.w3.org/2000/svg">
<path fill-rule="evenodd" clip-rule="evenodd" d="M82.89 54.6693C110.997 41.9846 139.446 29.6911 170.586 27.7253C178.403 27.2315 199.725 26.8087 198.44 39.6463C197.275 51.2843 180.138 55.116 170.988 56.2492C141.525 59.8972 112.461 53.8135 82.89 54.6693Z" stroke="#C76BFF" stroke-width="5" stroke-miterlimit="1.5" stroke-linecap="round" stroke-linejoin="round"/>
<path fill-rule="evenodd" clip-rule="evenodd" d="M73.4936 86.5382C103.146 104.997 141.492 114.718 173.448 129.316C199.506 141.219 232.945 161.358 249.47 185.7C265.4 209.164 247.062 231.1 220.563 221.922C185.888 209.912 162.434 171.476 139.359 144.993C121.13 124.072 95.1238 103.425 73.4936 86.5382Z" stroke="#C76BFF" stroke-width="5" stroke-miterlimit="1.5" stroke-linecap="round" stroke-linejoin="round"/>
<path fill-rule="evenodd" clip-rule="evenodd" d="M42.4484 115.379C62.416 140.61 90.104 165.093 96.711 197.453C98.4931 206.184 98.335 230.935 83.907 230.009C69.8237 229.105 65.1249 215.156 61.8871 203.802C55.9973 183.153 53.7436 161.814 49.2079 140.865C47.3542 132.302 43.8637 124.045 42.4484 115.379Z" stroke="#C76BFF" stroke-width="5" stroke-miterlimit="1.5" stroke-linecap="round" stroke-linejoin="round"/>
</svg>
