<svg width="141" height="147" viewBox="0 0 141 147" fill="none" xmlns="http://www.w3.org/2000/svg">
<path d="M106.53 43.1994C98.7691 44.8679 88.9789 47.1917 83.8429 53.8686C78.6776 60.5832 82.7073 74.1998 91.9602 75.0452C101.096 75.8792 108.28 69.4962 114.763 64.0454" stroke="#00C2FF" stroke-width="5" stroke-miterlimit="1.5" stroke-linecap="round" stroke-linejoin="round"/>
<path d="M123.848 76.7561C122.051 81.7903 117.185 85.6879 113.249 89.0411C105.759 95.4205 97.2265 100.526 86.984 99.8265C69.7408 98.6471 53.4159 82.0733 54.7114 64.5183C55.1581 58.47 58.1942 53.7283 61.4946 48.8243C65.4031 43.0171 71.0283 38.5621 77.0517 35.0353C84.3045 30.788 92.7161 26.834 101.188 26.0134" stroke="#00C2FF" stroke-width="5" stroke-miterlimit="1.5" stroke-linecap="round" stroke-linejoin="round"/>
<path d="M133.818 89.2558C131.896 95.9992 125.117 101.087 120.889 106.284C103.467 127.695 68.957 135.093 45.808 118.299C25.548 103.602 13.1712 72.4941 23.1658 47.6391C35.3938 17.23 75.2047 8.95092 94.6449 12.3096" stroke="#00C2FF" stroke-width="5" stroke-miterlimit="1.5" stroke-linecap="round" stroke-linejoin="round"/>
</svg>
