<svg width="55" height="651" viewBox="0 0 55 651" fill="none" xmlns="http://www.w3.org/2000/svg">
<circle cx="27.3333" cy="27.3333" r="25.3333" stroke="black" stroke-width="4"/>
<circle cx="27.3333" cy="226.001" r="25.3333" stroke="black" stroke-width="4"/>
<circle cx="27.3333" cy="424.665" r="25.3333" stroke="black" stroke-width="4"/>
<circle cx="27.3333" cy="623.333" r="25.3333" stroke="black" stroke-width="4"/>
<line x1="27.3333" y1="61.332" x2="27.3333" y2="191.999" stroke="black" stroke-width="4"/>
<line x1="27.3333" y1="260" x2="27.3333" y2="390.667" stroke="black" stroke-width="4"/>
<line x1="27.3333" y1="458.668" x2="27.3333" y2="589.335" stroke="black" stroke-width="4"/>
<path d="M19.5 238.5C18.8125 238.5 18.2238 238.255 17.7338 237.765C17.2438 237.275 16.9992 236.687 17 236V223.5C17 222.813 17.245 222.224 17.735 221.734C18.225 221.244 18.8133 220.999 19.5 221H20.75V218.5C20.75 216.771 21.3596 215.297 22.5788 214.078C23.7979 212.858 25.2717 212.249 27 212.25C28.7292 212.25 30.2033 212.86 31.4225 214.079C32.6417 215.298 33.2508 216.772 33.25 218.5V221H34.5C35.1875 221 35.7763 221.245 36.2663 221.735C36.7563 222.225 37.0008 222.813 37 223.5V236C37 236.688 36.755 237.276 36.265 237.766C35.775 238.256 35.1867 238.501 34.5 238.5H19.5ZM27 232.25C27.6875 232.25 28.2763 232.005 28.7663 231.515C29.2563 231.025 29.5008 230.437 29.5 229.75C29.5 229.063 29.255 228.474 28.765 227.984C28.275 227.494 27.6867 227.249 27 227.25C26.3125 227.25 25.7238 227.495 25.2338 227.985C24.7438 228.475 24.4992 229.063 24.5 229.75C24.5 230.438 24.745 231.026 25.235 231.516C25.725 232.006 26.3133 232.251 27 232.25ZM23.25 221H30.75V218.5C30.75 217.458 30.3854 216.573 29.6563 215.844C28.9271 215.115 28.0417 214.75 27 214.75C25.9583 214.75 25.0729 215.115 24.3438 215.844C23.6146 216.573 23.25 217.458 23.25 218.5V221Z" fill="black"/>
<path d="M19.5 436.5C18.8125 436.5 18.2238 436.255 17.7338 435.765C17.2438 435.275 16.9992 434.687 17 434V421.5C17 420.813 17.245 420.224 17.735 419.734C18.225 419.244 18.8133 418.999 19.5 419H20.75V416.5C20.75 414.771 21.3596 413.297 22.5788 412.078C23.7979 410.858 25.2717 410.249 27 410.25C28.7292 410.25 30.2033 410.86 31.4225 412.079C32.6417 413.298 33.2508 414.772 33.25 416.5V419H34.5C35.1875 419 35.7763 419.245 36.2663 419.735C36.7563 420.225 37.0008 420.813 37 421.5V434C37 434.688 36.755 435.276 36.265 435.766C35.775 436.256 35.1867 436.501 34.5 436.5H19.5ZM27 430.25C27.6875 430.25 28.2763 430.005 28.7663 429.515C29.2563 429.025 29.5008 428.437 29.5 427.75C29.5 427.063 29.255 426.474 28.765 425.984C28.275 425.494 27.6867 425.249 27 425.25C26.3125 425.25 25.7238 425.495 25.2338 425.985C24.7438 426.475 24.4992 427.063 24.5 427.75C24.5 428.438 24.745 429.026 25.235 429.516C25.725 430.006 26.3133 430.251 27 430.25ZM23.25 419H30.75V416.5C30.75 415.458 30.3854 414.573 29.6563 413.844C28.9271 413.115 28.0417 412.75 27 412.75C25.9583 412.75 25.0729 413.115 24.3438 413.844C23.6146 414.573 23.25 415.458 23.25 416.5V419Z" fill="black"/>
<path d="M19.5 635.5C18.8125 635.5 18.2238 635.255 17.7338 634.765C17.2438 634.275 16.9992 633.687 17 633V620.5C17 619.813 17.245 619.224 17.735 618.734C18.225 618.244 18.8133 617.999 19.5 618H20.75V615.5C20.75 613.771 21.3596 612.297 22.5788 611.078C23.7979 609.858 25.2717 609.249 27 609.25C28.7292 609.25 30.2033 609.86 31.4225 611.079C32.6417 612.298 33.2508 613.772 33.25 615.5V618H34.5C35.1875 618 35.7763 618.245 36.2663 618.735C36.7563 619.225 37.0008 619.813 37 620.5V633C37 633.688 36.755 634.276 36.265 634.766C35.775 635.256 35.1867 635.501 34.5 635.5H19.5ZM27 629.25C27.6875 629.25 28.2763 629.005 28.7663 628.515C29.2563 628.025 29.5008 627.437 29.5 626.75C29.5 626.063 29.255 625.474 28.765 624.984C28.275 624.494 27.6867 624.249 27 624.25C26.3125 624.25 25.7238 624.495 25.2338 624.985C24.7438 625.475 24.4992 626.063 24.5 626.75C24.5 627.438 24.745 628.026 25.235 628.516C25.725 629.006 26.3133 629.251 27 629.25ZM23.25 618H30.75V615.5C30.75 614.458 30.3854 613.573 29.6563 612.844C28.9271 612.115 28.0417 611.75 27 611.75C25.9583 611.75 25.0729 612.115 24.3438 612.844C23.6146 613.573 23.25 614.458 23.25 615.5V618Z" fill="black"/>
</svg>
