<svg width="204" height="188" viewBox="0 0 204 188" fill="none" xmlns="http://www.w3.org/2000/svg">
<path fill-rule="evenodd" clip-rule="evenodd" d="M36.3598 15.1641C44.6584 13.6462 53.022 12.5494 61.3253 11.0874C63.0329 10.788 68.1934 8.54163 69.5091 9.15159C71.3532 10.0079 70.2798 16.049 70.0695 17.4609C68.988 24.7008 67.255 31.7466 65.5188 38.8493C65.3173 39.6745 64.5855 44.795 63.8552 45.0291C61.0795 45.9193 57.5016 41.1123 55.9562 39.6663C49.2103 33.3538 39.7893 24.889 34.8209 16.9824" fill="#C76BFF"/>
<path d="M36.3598 15.1641C44.6584 13.6462 53.022 12.5494 61.3253 11.0874C63.033 10.788 68.1934 8.54163 69.5091 9.15159C71.3532 10.0079 70.2798 16.049 70.0695 17.4609C68.988 24.7008 67.255 31.7466 65.5188 38.8493C65.3173 39.6745 64.5855 44.795 63.8552 45.0291C61.0795 45.9193 57.5016 41.1123 55.9562 39.6663C49.2103 33.3538 39.7893 24.889 34.8209 16.9824" stroke="#C76BFF" stroke-width="5" stroke-miterlimit="1.5" stroke-linecap="round" stroke-linejoin="round"/>
<path d="M64.8933 25.1901C91.3426 26.8862 127.63 39.7724 144.069 62.0933C151.528 72.2196 159.648 103.53 140.403 107.541C119.317 111.935 123.251 77.5243 142.922 78.4121C160.315 79.1975 170.937 94.8218 174.814 110.37C181.665 137.848 175.115 163.377 157.284 185.109" stroke="#C76BFF" stroke-width="5" stroke-miterlimit="1.5" stroke-linecap="round" stroke-linejoin="round"/>
</svg>
