<svg width="103" height="103" viewBox="0 0 103 103" fill="none" xmlns="http://www.w3.org/2000/svg">
<path d="M0 0H51.5C79.9427 0 103 23.0573 103 51.5C103 79.9427 79.9427 103 51.5 103C23.0573 103 0 79.9427 0 51.5V0Z" fill="#C76BFF"/>
<path d="M46.3685 45.343H46.3891M56.6312 45.343H56.6517M35.0796 69.9734V43.2904C35.0796 41.6573 35.7283 40.0911 36.8831 38.9363C38.0379 37.7816 39.6041 37.1328 41.2372 37.1328H61.7626C63.3957 37.1328 64.9619 37.7816 66.1166 38.9363C67.2714 40.0911 67.9202 41.6573 67.9202 43.2904V55.6056C67.9202 57.2387 67.2714 58.805 66.1166 59.9597C64.9619 61.1145 63.3957 61.7632 61.7626 61.7632H43.2897L35.0796 69.9734Z" stroke="black" stroke-width="4.10507" stroke-linecap="round" stroke-linejoin="round"/>
<path d="M46.3685 53.5547C47.0374 54.2374 47.8358 54.7797 48.7169 55.1499C49.598 55.5202 50.5441 55.7109 51.4999 55.7109C52.4556 55.7109 53.4017 55.5202 54.2828 55.1499C55.164 54.7797 55.9623 54.2374 56.6312 53.5547" stroke="black" stroke-width="4.10507" stroke-linecap="round" stroke-linejoin="round"/>
</svg>
