<svg width="80" height="82" viewBox="0 0 80 82" fill="none" xmlns="http://www.w3.org/2000/svg">
<path fill-rule="evenodd" clip-rule="evenodd" d="M62.2687 42.208C61.0919 41.8702 57.7103 40.9157 56.5114 40.6653C55.7836 36.8957 53.9163 33.6347 50.9671 31.1556C49.1642 29.6394 46.7143 28.6825 45.4477 26.6031C44.9579 25.8004 44.698 24.834 44.5157 23.8392C43.854 20.2242 43.9625 16.6425 43.691 12.9944C43.557 11.1845 43.3717 8.96316 42.104 7.53114C39.5145 4.60698 35.7327 7.24042 34.3045 9.91206C31.5878 14.9958 31.5836 21.2306 32.7976 26.7493C27.4996 24.761 21.9107 23.1798 16.2154 23.0859C13.5136 23.0409 10.4353 23.7633 9.44755 26.6211C8.75252 28.6304 9.09446 31.0546 10.2353 32.8408C10.6092 33.4252 11.9457 34.921 11.9357 34.9252C11.8761 34.9494 10.2651 37.5205 9.77324 38.5784C8.29401 41.7608 9.87769 44.883 12.805 46.4805C9.59624 48.6757 9.92808 54.8892 14.0824 56.6166C12.1746 62.9897 19.5987 65.3338 23.9866 66.9318C35.8412 71.2489 39.9443 71.3757 48.6121 71.549C49.5726 71.568 53.5474 72.3554 54.4762 72.6023" fill="#C76BFF"/>
<path d="M62.2687 42.208C61.0919 41.8702 57.7103 40.9157 56.5114 40.6653C55.7836 36.8957 53.9163 33.6347 50.9671 31.1556C49.1642 29.6394 46.7143 28.6825 45.4477 26.6031C44.9579 25.8004 44.698 24.834 44.5157 23.8392C43.854 20.2242 43.9625 16.6425 43.691 12.9944C43.557 11.1845 43.3717 8.96316 42.104 7.53114C39.5145 4.60698 35.7327 7.24042 34.3045 9.91206C31.5878 14.9958 31.5836 21.2306 32.7976 26.7493C27.4996 24.761 21.9107 23.1798 16.2154 23.0859C13.5136 23.0409 10.4353 23.7633 9.44755 26.6211C8.75252 28.6304 9.09446 31.0546 10.2353 32.8408C10.6092 33.4252 11.9457 34.921 11.9357 34.9252C11.8761 34.9494 10.2651 37.5205 9.77324 38.5784C8.29401 41.7608 9.87769 44.883 12.805 46.4805C9.59624 48.6757 9.92808 54.8892 14.0824 56.6166C12.1746 62.9897 19.5987 65.3338 23.9866 66.9318C35.8412 71.2489 39.9443 71.3757 48.6121 71.549C49.5726 71.568 53.5474 72.3554 54.4762 72.6023" stroke="white" stroke-width="5" stroke-miterlimit="1.5" stroke-linecap="round" stroke-linejoin="round"/>
<path fill-rule="evenodd" clip-rule="evenodd" d="M72.3743 39.9897C69.8718 39.2968 65.9177 37.0476 63.3339 38.3145C61.7262 39.1031 61.479 43.4065 61.0759 45.0145C59.4507 51.4909 57.7054 57.9363 55.9779 64.386C55.2572 67.0756 52.647 72.0141 54.2213 74.7187C55.6845 77.2328 59.9285 77.7773 62.4464 78.5337" fill="#C76BFF"/>
<path d="M72.3743 39.9897C69.8718 39.2968 65.9177 37.0476 63.3339 38.3145C61.7262 39.1031 61.479 43.4065 61.0759 45.0145C59.4507 51.4909 57.7054 57.9363 55.9779 64.386C55.2572 67.0756 52.647 72.0141 54.2213 74.7187C55.6845 77.2328 59.9285 77.7773 62.4464 78.5337" stroke="white" stroke-width="5" stroke-miterlimit="1.5" stroke-linecap="round" stroke-linejoin="round"/>
</svg>
