<svg width="152" height="151" viewBox="0 0 152 151" fill="none" xmlns="http://www.w3.org/2000/svg">
<path d="M36.5611 50.078C40.4911 56.9753 45.6574 65.61 53.5718 68.4948C61.5309 71.3964 73.2998 63.4502 71.3173 54.3728C69.3591 45.41 61.1079 40.484 53.9569 35.9458" stroke="#C76BFF" stroke-width="5" stroke-miterlimit="1.5" stroke-linecap="round" stroke-linejoin="round"/>
<path d="M63.3389 23.4514C68.6803 23.6469 73.8634 27.1125 78.247 29.8551C86.587 35.0737 94.0266 41.6709 96.4466 51.6481C100.519 68.4449 89.6355 89.0058 72.5063 93.0613C66.6046 94.4582 61.1683 92.9923 55.4977 91.3233C48.7826 89.3468 42.8394 85.3257 37.6612 80.6453C31.4255 75.0097 25.1203 68.1809 21.7845 60.35" stroke="#C76BFF" stroke-width="5" stroke-miterlimit="1.5" stroke-linecap="round" stroke-linejoin="round"/>
<path d="M72.2523 10.177C79.2616 9.97817 86.1556 14.908 92.3854 17.3732C118.052 27.5319 135.506 58.2084 126.47 85.3422C118.562 109.09 92.6305 130.266 65.9191 128.227C33.2386 125.732 13.3462 90.2677 10.6898 70.7191" stroke="#C76BFF" stroke-width="5" stroke-miterlimit="1.5" stroke-linecap="round" stroke-linejoin="round"/>
</svg>
