<svg width="92" height="90" viewBox="0 0 92 90" fill="none" xmlns="http://www.w3.org/2000/svg">
<path fill-rule="evenodd" clip-rule="evenodd" d="M37.6101 66.2199C38.2869 65.1996 40.216 62.2629 40.8161 61.1952C44.6299 61.6373 48.302 60.8396 51.5546 58.7747C53.5437 57.5126 55.1945 55.465 57.5588 54.884C58.4718 54.6589 59.4717 54.7023 60.4751 54.8283C64.1215 55.2869 67.504 56.4698 71.0642 57.3104C72.8304 57.728 75.0043 58.2208 76.7518 57.4436C80.3204 55.8558 78.9492 51.4562 76.8322 49.2893C72.8035 45.1667 66.8599 43.2837 61.232 42.778C64.7245 38.3255 67.9166 33.4731 69.7226 28.0709C70.5798 25.5083 70.8187 22.3554 68.3915 20.5523C66.685 19.284 64.2705 18.8794 62.2235 19.4289C61.5536 19.6093 59.7246 20.4328 59.7236 20.4221C59.7185 20.3579 57.7524 18.047 56.8919 17.2591C54.3034 14.8896 50.849 15.4586 48.4436 17.7684C47.3174 14.0472 41.2929 12.491 38.3937 15.9316C32.8919 12.1917 28.4194 18.5642 25.5733 22.2665C17.8842 32.2688 16.5266 36.1429 13.7491 44.3555C13.4415 45.2656 11.4928 48.8183 10.9775 49.6295" fill="#001F4E"/>
<path d="M37.6101 66.2199C38.2869 65.1996 40.216 62.2629 40.8161 61.1952C44.6299 61.6373 48.302 60.8396 51.5546 58.7747C53.5437 57.5126 55.1945 55.465 57.5588 54.884C58.4718 54.6589 59.4717 54.7023 60.4751 54.8283C64.1215 55.2869 67.504 56.4698 71.0642 57.3104C72.8304 57.728 75.0043 58.2208 76.7518 57.4436C80.3204 55.8558 78.9492 51.4562 76.8322 49.2893C72.8035 45.1667 66.8599 43.2837 61.232 42.778C64.7245 38.3255 67.9166 33.4731 69.7226 28.0709C70.5798 25.5083 70.8187 22.3554 68.3915 20.5523C66.685 19.284 64.2705 18.8794 62.2235 19.4289C61.5536 19.6093 59.7245 20.4328 59.7236 20.4221C59.7185 20.3579 57.7524 18.047 56.8919 17.2591C54.3034 14.8896 50.849 15.4586 48.4436 17.7684C47.3174 14.0472 41.2929 12.491 38.3937 15.9316C32.8919 12.1917 28.4194 18.5642 25.5733 22.2665C17.8842 32.2688 16.5266 36.1429 13.7491 44.3555C13.4415 45.2656 11.4928 48.8183 10.9775 49.6295" stroke="white" stroke-width="5" stroke-miterlimit="1.5" stroke-linecap="round" stroke-linejoin="round"/>
<path fill-rule="evenodd" clip-rule="evenodd" d="M36.6793 76.5247C38.0942 74.3473 41.4305 71.2549 41.0012 68.4095C40.7338 66.6388 36.7049 65.1062 35.2933 64.2372C29.6078 60.7357 23.988 57.129 18.3589 53.5381C16.0115 52.0403 12.0894 48.0631 9.03604 48.7491C6.19788 49.3866 4.3996 53.2691 2.91952 55.442" fill="#001F4E"/>
<path d="M36.6793 76.5247C38.0942 74.3473 41.4305 71.2549 41.0012 68.4095C40.7338 66.6388 36.7049 65.1062 35.2933 64.2372C29.6078 60.7357 23.988 57.129 18.3589 53.5381C16.0115 52.0403 12.0894 48.0631 9.03604 48.7491C6.19788 49.3866 4.3996 53.2691 2.91952 55.442" stroke="white" stroke-width="5" stroke-miterlimit="1.5" stroke-linecap="round" stroke-linejoin="round"/>
</svg>
