<svg width="265" height="250" viewBox="0 0 265 250" fill="none" xmlns="http://www.w3.org/2000/svg">
<path fill-rule="evenodd" clip-rule="evenodd" d="M240.859 93.7364C244.483 124.36 247.632 155.191 240.121 185.476C238.236 193.078 232.213 213.535 220.359 208.441C209.614 203.823 211.125 186.328 212.802 177.262C218.203 148.07 232.763 122.191 240.859 93.7364Z" stroke="#C76BFF" stroke-width="5" stroke-miterlimit="1.5" stroke-linecap="round" stroke-linejoin="round"/>
<path fill-rule="evenodd" clip-rule="evenodd" d="M213.303 75.1719C186.767 97.8822 165.94 131.515 142.391 157.587C123.187 178.846 93.9067 204.66 65.7167 213.081C38.5425 221.198 23.1526 197.102 39.8904 174.601C61.7924 145.158 105.51 134.378 137.716 120.358C163.158 109.281 190.682 90.707 213.303 75.1719Z" stroke="#C76BFF" stroke-width="5" stroke-miterlimit="1.5" stroke-linecap="round" stroke-linejoin="round"/>
<path fill-rule="evenodd" clip-rule="evenodd" d="M195.16 36.8779C165.085 48.3131 133.395 67.3349 100.549 63.8821C91.6859 62.9498 68.1335 55.3397 73.3649 41.8616C78.4719 28.7058 93.1879 28.4292 104.99 28.7639C126.454 29.3712 147.48 33.6534 168.822 35.6421C177.546 36.4554 186.47 35.6155 195.16 36.8779Z" stroke="#C76BFF" stroke-width="5" stroke-miterlimit="1.5" stroke-linecap="round" stroke-linejoin="round"/>
</svg>
