<svg width="25" height="25" viewBox="0 0 25 25" fill="none" xmlns="http://www.w3.org/2000/svg">
<g id="mdi:password">
<path id="Vector" d="M12.5001 17.7077C13.0527 17.7077 13.5826 17.4882 13.9733 17.0975C14.364 16.7068 14.5835 16.1769 14.5835 15.6243C14.5835 15.0718 14.364 14.5419 13.9733 14.1512C13.5826 13.7605 13.0527 13.541 12.5001 13.541C11.9476 13.541 11.4177 13.7605 11.027 14.1512C10.6363 14.5419 10.4168 15.0718 10.4168 15.6243C10.4168 16.1769 10.6363 16.7068 11.027 17.0975C11.4177 17.4882 11.9476 17.7077 12.5001 17.7077ZM18.7501 8.33268C19.3027 8.33268 19.8326 8.55218 20.2233 8.94288C20.614 9.33358 20.8335 9.86348 20.8335 10.416V20.8327C20.8335 21.3852 20.614 21.9151 20.2233 22.3058C19.8326 22.6965 19.3027 22.916 18.7501 22.916H6.25014C5.69761 22.916 5.1677 22.6965 4.777 22.3058C4.3863 21.9151 4.16681 21.3852 4.16681 20.8327V10.416C4.16681 9.86348 4.3863 9.33358 4.777 8.94288C5.1677 8.55218 5.69761 8.33268 6.25014 8.33268H7.29181V6.24935C7.29181 4.86801 7.84054 3.54325 8.8173 2.5665C9.79405 1.58975 11.1188 1.04102 12.5001 1.04102C13.1841 1.04102 13.8614 1.17573 14.4933 1.43748C15.1252 1.69922 15.6994 2.08286 16.183 2.5665C16.6666 3.05014 17.0503 3.6243 17.312 4.25621C17.5738 4.88811 17.7085 5.56538 17.7085 6.24935V8.33268H18.7501ZM12.5001 3.12435C11.6713 3.12435 10.8765 3.45359 10.2904 4.03964C9.70438 4.62569 9.37514 5.42055 9.37514 6.24935V8.33268H15.6251V6.24935C15.6251 5.42055 15.2959 4.62569 14.7099 4.03964C14.1238 3.45359 13.3289 3.12435 12.5001 3.12435Z" fill="#CBCBCB"/>
</g>
</svg>
