<svg width="182" height="128" viewBox="0 0 182 128" fill="none" xmlns="http://www.w3.org/2000/svg">
<path fill-rule="evenodd" clip-rule="evenodd" d="M108.76 38.5435C91.616 45.491 56.4009 58.2803 52.9604 59.3879C45.0797 47.3675 27.301 43.1712 15.2668 51.6085C4.38824 59.2357 -0.160125 74.7907 4.30109 87.1684C11.052 83.3852 20.1701 78.7909 28.654 75.1917C29.1168 74.9956 39.4811 78.455 44.5689 80.6568C43.4383 85.5499 43.158 93.3378 41.5525 98.648C32.8431 103.451 23.3489 108.027 16.3289 111.576C21.484 117.475 28.2162 124.032 36.5913 124.669C56.2885 126.166 73.7132 112.129 68.6238 93.5298C81.0029 87.9413 116.625 75.5586 122.417 72.858C127.029 77.9885 134.595 84.7718 141.758 85.3543C162.062 87.0066 184.729 67.9487 177.282 46.8945C168.7 49.4568 160.408 53.1035 151.983 56.1396C150.166 54.4771 147.884 53.213 145.85 51.8483C143.175 50.0521 140.872 47.7393 138.149 46.0126C139.675 40.6867 139.391 34.7508 141.124 29.5462C148.795 26.1255 159.108 22.6737 167.226 20.8542C152.188 -1.57768 117.602 -6.29602 109.888 24.6863C108.78 29.1391 108.19 33.9607 108.76 38.5435Z" fill="#C76BFF" stroke="white" stroke-width="5" stroke-miterlimit="1.5" stroke-linecap="round" stroke-linejoin="round"/>
</svg>
