<svg width="397" height="224" viewBox="0 0 397 224" fill="none" xmlns="http://www.w3.org/2000/svg">
<path d="M394 221C392.581 204.665 394.275 187.871 393.613 171.477C392.54 144.901 388.984 118.415 388.387 91.8244C373.829 105.047 360.948 120.193 346.153 133.152C329.447 147.786 310.417 162.003 296.25 179.169C293.548 139.685 290.92 100.177 288.449 60.6719C258.279 86.8952 226.808 114.37 199.111 143.028L185.625 25.6462C151.298 49.899 121.314 80.5309 86.7542 104.858C86.0536 71.1901 82.1548 36.4367 83.1539 3C55.085 23.8709 28.5239 51.0204 3 74.8619" stroke="#C76BFF" stroke-width="5" stroke-miterlimit="1.5" stroke-linecap="round" stroke-linejoin="round"/>
</svg>
