<svg width="66" height="66" viewBox="0 0 66 66" fill="none" xmlns="http://www.w3.org/2000/svg">
<path fill-rule="evenodd" clip-rule="evenodd" d="M44.3156 46.4411C43.1857 51.1192 42.5134 57.9217 39.1 61.4457C33.6501 67.0714 27.7229 58.1784 25.9026 53.9262C25.42 52.7978 24.9493 51.6618 24.5305 50.5073C24.0319 49.1342 23.5573 47.7498 23.1359 46.3507C18.6651 47.9855 12.9096 49.2892 8.16782 48.4292C4.19476 47.7084 2.29111 44.679 3.70315 40.822C5.38868 36.2166 9.34149 32.1333 12.7324 28.7207C11.2968 23.8591 9.76497 18.8845 9.54387 13.8184C9.33188 8.94826 12.9524 6.59279 17.4675 7.98223C18.9261 8.43094 20.3302 9.04672 21.6863 9.74441C23.5109 10.6837 27.6968 13.2866 28.7841 13.9143C28.944 13.9144 29.8101 13.0062 29.9779 12.8633C31.1185 11.8936 32.2711 10.9527 33.4679 10.0525C34.3714 9.37357 35.2808 8.70134 36.1971 8.04026C39.4577 5.6873 47.5635 -1.03196 50.4552 4.97997C50.7488 5.59111 50.916 6.24322 51.0254 6.90946C51.2055 8.00997 51.1762 9.16929 51.1226 10.2802C51.0218 12.3659 50.693 14.4304 50.3795 16.4912C49.9119 19.5693 49.2359 22.6416 48.8985 25.7389C48.8945 25.7772 48.886 25.8149 48.8756 25.8523C50.47 26.8259 52.0761 27.7901 53.6459 28.804C57.0707 31.0154 63.1142 33.281 62.6316 37.69C62.3711 40.0742 60.2836 41.5511 58.2576 42.4373C54.1419 44.2366 49.6256 44.8512 45.2189 45.4964" fill="#C76BFF"/>
<path d="M44.3156 46.4411C43.1857 51.1192 42.5134 57.9217 39.1 61.4457C33.6501 67.0714 27.7229 58.1784 25.9026 53.9262C25.42 52.7978 24.9493 51.6618 24.5305 50.5073C24.0319 49.1342 23.5573 47.7498 23.1359 46.3507C18.6651 47.9855 12.9096 49.2892 8.16782 48.4292C4.19476 47.7084 2.29111 44.679 3.70315 40.822C5.38868 36.2166 9.34149 32.1333 12.7324 28.7207C11.2968 23.8591 9.76498 18.8845 9.54387 13.8184C9.33188 8.94826 12.9524 6.59279 17.4675 7.98223C18.9261 8.43094 20.3302 9.04672 21.6863 9.74441C23.5109 10.6837 27.6968 13.2866 28.7841 13.9143C28.944 13.9144 29.8101 13.0062 29.9779 12.8633C31.1185 11.8936 32.2711 10.9527 33.4679 10.0525C34.3714 9.37357 35.2808 8.70134 36.1971 8.04026C39.4577 5.6873 47.5635 -1.03196 50.4552 4.97997C50.7488 5.59111 50.916 6.24322 51.0254 6.90946C51.2055 8.00997 51.1762 9.16929 51.1226 10.2802C51.0218 12.3659 50.693 14.4304 50.3795 16.4912C49.9119 19.5693 49.2359 22.6416 48.8985 25.7389C48.8945 25.7772 48.886 25.8149 48.8756 25.8523C50.47 26.8259 52.0761 27.7901 53.6459 28.804C57.0707 31.0154 63.1142 33.281 62.6316 37.69C62.3711 40.0742 60.2836 41.5511 58.2576 42.4373C54.1419 44.2366 49.6256 44.8512 45.2189 45.4964" stroke="white" stroke-width="5" stroke-miterlimit="1.5" stroke-linecap="round" stroke-linejoin="round"/>
</svg>
