<svg width="36" height="42" viewBox="0 0 36 42" fill="none" xmlns="http://www.w3.org/2000/svg">
<path d="M23.477 25.82C23.2202 25.736 21.5967 25.0042 22.6112 21.9204H22.5966C25.2411 19.1968 27.262 14.8141 27.262 10.4993C27.262 3.86474 22.8502 0.386719 17.7229 0.386719C12.5923 0.386719 8.20476 3.86312 8.20476 10.4993C8.20476 14.8319 10.2144 19.2323 12.875 21.9495C13.9121 24.6698 12.0576 25.6795 11.6699 25.8216C6.30017 27.7634 0 31.3028 0 34.797V36.1071C0 40.8677 9.23056 41.9501 17.7729 41.9501C26.3283 41.9501 35.4425 40.8677 35.4425 36.1071V34.797C35.4425 31.1978 29.1116 27.6858 23.477 25.82Z" fill="#C76BFF"/>
</svg>
