<svg width="154" height="170" viewBox="0 0 154 170" fill="none" xmlns="http://www.w3.org/2000/svg">
<path fill-rule="evenodd" clip-rule="evenodd" d="M46.6879 75.8415C58.4791 90.0941 81.2868 119.817 83.3799 122.764C74.2935 133.901 75.6504 152.118 87.3223 161.05C97.8734 169.124 114.076 168.773 124.534 160.788C118.892 155.492 111.763 148.182 105.774 141.177C105.448 140.795 105.623 129.87 106.189 124.355C111.195 123.959 118.705 121.879 124.253 121.809C131.458 128.666 138.681 136.34 144.181 141.964C148.253 135.271 152.476 126.875 150.559 118.698C146.05 99.4651 127.415 87.081 111.214 97.5393C102.154 87.4201 79.6113 57.1858 75.291 52.4778C78.793 46.534 82.9803 37.2746 81.3773 30.2699C76.8335 10.4119 51.8302 -5.45813 33.9994 7.9882C39.029 15.3991 45.0052 22.2065 50.4392 29.3245C49.4016 31.5584 48.884 34.1151 48.1957 36.4657C47.2894 39.558 45.778 42.4505 44.9525 45.5679C39.4143 45.7177 33.84 47.7777 28.3551 47.6939C22.7815 41.4104 16.3819 32.6164 12.2005 25.4248C-4.65625 46.524 1.26834 80.924 33.135 78.9417C37.7147 78.6566 42.4898 77.7656 46.6879 75.8415Z" fill="#C76BFF" stroke="white" stroke-width="5" stroke-miterlimit="1.5" stroke-linecap="round" stroke-linejoin="round"/>
</svg>
