<svg width="56" height="70" viewBox="0 0 56 70" fill="none" xmlns="http://www.w3.org/2000/svg">
<path d="M38.7143 17.2857H17.2857M38.7143 31.5714H17.2857M38.7143 45.8571H24.4286M3 3H53V67.2857L49.3143 64.1286C48.0197 63.0191 46.371 62.4092 44.6661 62.4092C42.9611 62.4092 41.3124 63.0191 40.0179 64.1286L36.3321 67.2857L32.65 64.1286C31.3552 63.0181 29.7058 62.4077 28 62.4077C26.2942 62.4077 24.6448 63.0181 23.35 64.1286L19.6679 67.2857L15.9821 64.1286C14.6876 63.0191 13.0389 62.4092 11.3339 62.4092C9.62898 62.4092 7.98027 63.0191 6.68571 64.1286L3 67.2857V3Z" stroke="#333333" stroke-width="5.35714" stroke-linecap="round" stroke-linejoin="round"/>
</svg>
