<svg width="66" height="65" viewBox="0 0 66 65" fill="none" xmlns="http://www.w3.org/2000/svg">
<path fill-rule="evenodd" clip-rule="evenodd" d="M16.5402 41.6657C12.4201 39.1784 6.13654 36.4872 3.80507 32.1705C0.0834754 25.2785 10.3493 22.3071 14.9524 21.853C16.1738 21.7328 17.3989 21.6264 18.6258 21.5751C20.0854 21.5135 21.5484 21.4781 23.0095 21.498C22.7982 16.7424 23.2896 10.8616 25.5387 6.59945C27.4234 3.02836 30.8856 2.12622 34.1378 4.63502C38.0211 7.63018 40.7232 12.6298 42.9552 16.8916C48.0234 16.9879 53.2283 17.0265 58.1256 18.3425C62.8332 19.6082 63.9879 23.7703 61.3024 27.6566C60.4349 28.9122 59.4246 30.0655 58.3506 31.1482C56.9051 32.6049 53.1617 35.8117 52.2355 36.6592C52.1872 36.8117 52.7922 37.9113 52.8778 38.1143C53.4587 39.4941 54.0085 40.8767 54.5061 42.2892C54.8812 43.3553 55.2481 44.425 55.6023 45.4979C56.8632 49.3161 60.8271 59.07 54.2232 60.0154C53.552 60.1111 52.8798 60.074 52.2116 59.9775C51.108 59.8176 50.0114 59.4403 48.9683 59.0543C47.0099 58.3296 45.1405 57.3939 43.27 56.4739C40.476 55.1004 37.7502 53.5299 34.8986 52.2747C34.8633 52.2594 34.8299 52.2398 34.7974 52.2187C33.3886 53.4455 31.9852 54.6864 30.5453 55.8776C27.4045 58.4768 23.4229 63.5565 19.3643 61.7675C17.1695 60.8006 16.3904 58.3649 16.156 56.1661C15.6808 51.6995 16.4558 47.208 17.1687 42.8117" fill="#C76BFF"/>
<path d="M16.5402 41.6657C12.4201 39.1784 6.13655 36.4872 3.80507 32.1705C0.0834771 25.2785 10.3493 22.3071 14.9524 21.853C16.1738 21.7328 17.3989 21.6264 18.6258 21.5751C20.0854 21.5135 21.5484 21.4781 23.0095 21.498C22.7982 16.7424 23.2896 10.8616 25.5387 6.59945C27.4234 3.02836 30.8856 2.12621 34.1378 4.63502C38.0211 7.63018 40.7232 12.6298 42.9552 16.8916C48.0234 16.9879 53.2283 17.0265 58.1256 18.3425C62.8332 19.6082 63.9879 23.7703 61.3024 27.6566C60.4349 28.9122 59.4246 30.0655 58.3506 31.1482C56.9051 32.6049 53.1617 35.8117 52.2355 36.6592C52.1872 36.8117 52.7922 37.9113 52.8778 38.1143C53.4587 39.4941 54.0085 40.8767 54.5061 42.2892C54.8812 43.3553 55.2481 44.425 55.6023 45.4979C56.8632 49.3161 60.8271 59.07 54.2232 60.0154C53.552 60.1111 52.8798 60.074 52.2116 59.9775C51.108 59.8176 50.0114 59.4403 48.9683 59.0543C47.0099 58.3296 45.1405 57.3939 43.27 56.4739C40.476 55.1004 37.7502 53.5299 34.8986 52.2747C34.8633 52.2594 34.8299 52.2398 34.7974 52.2187C33.3886 53.4455 31.9852 54.6864 30.5453 55.8776C27.4045 58.4768 23.4229 63.5565 19.3643 61.7675C17.1695 60.8005 16.3904 58.3649 16.156 56.1661C15.6808 51.6995 16.4558 47.208 17.1687 42.8117" stroke="white" stroke-width="5" stroke-miterlimit="1.5" stroke-linecap="round" stroke-linejoin="round"/>
</svg>
