<svg width="307" height="368" viewBox="0 0 307 368" fill="none" xmlns="http://www.w3.org/2000/svg">
<path d="M2.62521 331.528C18.6285 335.098 34.1308 341.774 49.9625 346.084C75.6256 353.07 101.952 357.662 127.486 365.106C119.266 347.241 108.707 330.393 100.809 312.381C91.89 292.041 84.0695 269.612 71.9708 250.929C110.434 260.253 148.897 269.654 187.31 279.204C171.398 242.533 154.686 204.245 135.707 169.199L251.696 191.716C238.916 151.677 218.745 113.855 205.965 73.5703C238.278 83.0491 272.591 89.8055 304.172 100.835C292.731 67.7814 274.849 34.2729 259.808 2.75047" stroke="#00C2FF" stroke-width="5" stroke-miterlimit="1.5" stroke-linecap="round" stroke-linejoin="round"/>
</svg>
